<?xml version="1.0" encoding="UTF-8" standalone="no"?>
<!-- Created with Inkscape (http://www.inkscape.org/) -->

<svg
   width="1024"
   height="1024"
   viewBox="0 0 270.93333 270.93333"
   version="1.1"
   id="svg5"
   xml:space="preserve"
   inkscape:version="1.2.1 (9c6d41e410, 2022-07-14)"
   sodipodi:docname="platforms-around-logo.svg"
   xmlns:inkscape="http://www.inkscape.org/namespaces/inkscape"
   xmlns:sodipodi="http://sodipodi.sourceforge.net/DTD/sodipodi-0.dtd"
   xmlns:xlink="http://www.w3.org/1999/xlink"
   xmlns="http://www.w3.org/2000/svg"
   xmlns:svg="http://www.w3.org/2000/svg"><sodipodi:namedview
     id="namedview7"
     pagecolor="#505050"
     bordercolor="#ffffff"
     borderopacity="1"
     inkscape:showpageshadow="0"
     inkscape:pageopacity="0"
     inkscape:pagecheckerboard="1"
     inkscape:deskcolor="#505050"
     inkscape:document-units="mm"
     showgrid="false"
     inkscape:zoom="1.3095703"
     inkscape:cx="444.03878"
     inkscape:cy="458.54736"
     inkscape:window-width="2560"
     inkscape:window-height="1411"
     inkscape:window-x="1911"
     inkscape:window-y="-9"
     inkscape:window-maximized="1"
     inkscape:current-layer="layer1" /><defs
     id="defs2"><linearGradient
       id="linearGradient9498"><stop
         style="stop-color:#fcaf3e;stop-opacity:1;"
         offset="0"
         id="stop9500" /><stop
         id="stop6206"
         offset="0.5"
         style="stop-color:#f89426;stop-opacity:1;" /><stop
         style="stop-color:#ce5c00;stop-opacity:1;"
         offset="1"
         id="stop9502" /></linearGradient><linearGradient
       id="linearGradient5060"><stop
         style="stop-color:#eeeeec;stop-opacity:1;"
         offset="0"
         id="stop5062" /><stop
         style="stop-color:#d3d7cf;stop-opacity:1;"
         offset="1"
         id="stop5064" /></linearGradient><linearGradient
       id="linearGradient2182"><stop
         style="stop-color:#555753;stop-opacity:1;"
         offset="0"
         id="stop2184" /><stop
         style="stop-color:#000000;stop-opacity:1;"
         offset="1"
         id="stop2186" /></linearGradient><linearGradient
       id="linearGradient2300"><stop
         style="stop-color:#000000;stop-opacity:0.32673267;"
         offset="0.0000000"
         id="stop2302" /><stop
         style="stop-color:#000000;stop-opacity:0;"
         offset="1"
         id="stop2304" /></linearGradient><linearGradient
       id="linearGradient2219"><stop
         id="stop2221"
         offset="0"
         style="stop-color:#eeeeec;stop-opacity:1;" /><stop
         id="stop2223"
         offset="1"
         style="stop-color:#2e3436;stop-opacity:1;" /></linearGradient><linearGradient
       id="linearGradient28799-4"><stop
         id="stop28801-13"
         offset="0"
         style="stop-color:#fefefc;stop-opacity:1;" /><stop
         style="stop-color:#fefefc;stop-opacity:1"
         offset="0.75733864"
         id="stop28807-8" /><stop
         id="stop28803-8"
         offset="1"
         style="stop-color:#d4d4d4;stop-opacity:1" /></linearGradient><radialGradient
       r="14.572236"
       fy="137.66095"
       fx="223.19559"
       cy="137.66095"
       cx="223.19559"
       gradientTransform="matrix(1.0857794,-0.03431182,0.03943781,1.2479887,-154.54194,-26.542647)"
       gradientUnits="userSpaceOnUse"
       id="radialGradient29032"
       xlink:href="#linearGradient28799-4"
       inkscape:collect="always" /><radialGradient
       r="14.572236"
       fy="137.66095"
       fx="223.19559"
       cy="137.66095"
       cx="223.19559"
       gradientTransform="matrix(0.81524244,-0.03431182,0.02961133,1.2479887,-129.43743,-26.542647)"
       gradientUnits="userSpaceOnUse"
       id="radialGradient29648"
       xlink:href="#linearGradient28799-4"
       inkscape:collect="always" /><linearGradient
       inkscape:collect="always"
       id="linearGradient14392-7"><stop
         style="stop-color:#3e2a06;stop-opacity:1"
         offset="0"
         id="stop14394-8" /><stop
         style="stop-color:#ad780a;stop-opacity:1"
         offset="1"
         id="stop14396-6" /></linearGradient><linearGradient
       inkscape:collect="always"
       xlink:href="#linearGradient14392-7"
       id="linearGradient14477"
       gradientUnits="userSpaceOnUse"
       gradientTransform="matrix(0.87491199,0,0,0.81148755,60.367186,62.586953)"
       x1="442.03912"
       y1="371.54401"
       x2="490.12241"
       y2="293.58548" /><linearGradient
       inkscape:collect="always"
       xlink:href="#linearGradient14392-7"
       id="linearGradient14485"
       gradientUnits="userSpaceOnUse"
       gradientTransform="translate(4e-6,9.6185359e-6)"
       x1="442.03912"
       y1="371.54401"
       x2="490.12241"
       y2="293.58548" /><clipPath
       clipPathUnits="userSpaceOnUse"
       id="clipPath14186-9"><path
         inkscape:original-d="m 137.57703,281.0191 c 6.32494,-1.3585 11.99755,4.87308 16.86679,9.13228 6.42572,5.62067 -8.54781,26.01622 13.24488,19.8293 5.86081,-1.66388 6.89528,11.31183 10.16415,16.45304 4.09971,6.44793 11.58575,13.6827 13.65231,21.03883 1.58383,5.63779 1.34339,10.90606 -1.62666,15.95302 -3.57124,6.06857 -11.7907,10.42929 -18.78877,11.20919 -5.73056,0.63864 -11.87822,-3.8351 -17.38362,-5.54906 -12.31617,-3.83432 -23.77946,-5.82074 -36.09666,-9.65174 -2.50091,-0.77785 -8.28361,-2.638 -10.96988,-3.42629 -4.51043,-1.3236 -6.46556,-0.99271 -8.72046,-4.76819 -2.68251,-4.49147 0.68051,-9.72669 3.16379,-14.79408 4.06995,-8.30524 1.91195,-17.82603 0.46203,-25.51057 -0.92235,-4.8884 -0.66071,-7.92707 2.7425,-10.79139 4.99476,-4.20385 14.53027,-1.53186 20.35272,-4.08305 5.82246,-2.55119 6.66365,-13.6939 12.93688,-15.04129 z"
         sodipodi:nodetypes="ssssssssssssssss"
         inkscape:connector-curvature="0"
         id="path14188-1"
         d="m 137.57703,281.0191 c 1.59929,-0.66295 3.3982,-0.78361 5.10074,-0.46963 1.70253,0.31398 3.31141,1.04948 4.74342,2.02239 2.86402,1.94583 4.98821,4.77774 7.02263,7.57952 4.67189,6.43406 9.16868,13.00227 13.24488,19.8293 3.30635,5.53766 6.34352,11.25685 10.16415,16.45304 2.49398,3.3919 5.3066,6.53947 7.813,9.92221 2.50639,3.38273 4.72794,7.05586 5.83931,11.11662 1.44411,5.27653 0.88463,11.09291 -1.62666,15.95302 -1.76663,3.41896 -4.47646,6.35228 -7.77242,8.33898 -3.29595,1.9867 -7.17064,3.01444 -11.01635,2.87021 -6.11413,-0.2293 -11.69944,-3.28515 -17.38362,-5.54906 -11.58097,-4.6125 -24.15978,-6.0594 -36.09666,-9.65174 -3.66859,-1.10404 -7.27582,-2.4107 -10.96988,-3.42629 -1.64125,-0.45122 -3.30866,-0.8482 -4.85875,-1.55144 -1.55008,-0.70325 -2.999548,-1.7491 -3.86171,-3.21675 -0.666391,-1.13439 -0.948386,-2.47002 -0.930187,-3.78554 0.0182,-1.31552 0.325889,-2.61453 0.773815,-3.85158 0.895851,-2.47409 2.343262,-4.71374 3.320162,-7.15696 1.59511,-3.98935 1.88169,-8.38839 1.66657,-12.67942 -0.21511,-4.29103 -0.91078,-8.54478 -1.20454,-12.83115 -0.13118,-1.91406 -0.18066,-3.85256 0.18479,-5.73598 0.36545,-1.88343 1.17577,-3.72459 2.55771,-5.05541 1.27406,-1.22693 2.96492,-1.95531 4.69643,-2.31651 1.73151,-0.3612 3.51533,-0.37747 5.28367,-0.33762 1.76833,0.0399 3.54067,0.13425 5.30351,-0.0106 1.76284,-0.14488 3.53347,-0.54055 5.06911,-1.41828 1.45996,-0.83447 2.65433,-2.0745 3.64374,-3.43424 0.9894,-1.35974 1.78909,-2.84573 2.60891,-4.31396 0.81983,-1.46823 1.66834,-2.93151 2.74157,-4.22611 1.07324,-1.2946 2.38923,-2.42304 3.94266,-3.06698"
         style="fill:#402c07;fill-opacity:1;stroke:none" /></clipPath><inkscape:path-effect
       is_visible="true"
       id="path-effect4669-1"
       effect="spiro" /><inkscape:path-effect
       is_visible="true"
       id="path-effect4669-4-3"
       effect="spiro" /><inkscape:path-effect
       effect="spiro"
       id="path-effect14972-2-2"
       is_visible="true" /><inkscape:path-effect
       effect="spiro"
       id="path-effect15017-9"
       is_visible="true" /><clipPath
       clipPathUnits="userSpaceOnUse"
       id="clipPath15031-3"><path
         style="fill:none;stroke:#729fcf;stroke-width:0.125;stroke-linecap:butt;stroke-linejoin:miter;stroke-miterlimit:4;stroke-dasharray:none;stroke-opacity:1"
         d="m 248.06066,184.61218 c -2.60091,3.4397 -5.23338,6.85555 -7.89695,10.24696 -2.83301,3.60715 -5.70116,7.1866 -8.58729,10.75139 -3.54135,4.37407 -7.15155,8.79286 -9.44912,13.93045 -1.97407,4.41422 -2.91014,9.20748 -4.26498,13.84932 -1.53862,5.27153 -3.62627,10.37023 -5.97071,15.33612 -2.1648,4.58539 -4.54978,9.06293 -6.93891,13.53553 -1.73823,3.25407 -3.50515,6.58104 -4.10782,10.22071 -0.47627,2.87632 -0.19849,5.84423 0.53376,8.66626 0.73224,2.82202 1.90964,5.5106 3.23775,8.10601 5.66724,11.07504 14.17003,20.62168 24.24176,27.92472 4.57063,3.31418 9.46669,6.18109 14.60245,8.52595 2.78247,1.27041 5.71355,2.40436 8.77186,2.45744 1.52915,0.0265 3.0741,-0.22544 4.47434,-0.84055 1.40024,-0.6151 2.65068,-1.60373 3.48254,-2.88709 1.02278,-1.5779 1.36992,-3.53829 1.16461,-5.40743 -0.2053,-1.86914 -0.93484,-3.65294 -1.91324,-5.25873 -2.38997,-3.92251 -6.1652,-6.76055 -9.79642,-9.57343 -7.84055,-6.07358 -15.42466,-12.48038 -22.68212,-19.23996 -2.04911,-1.90854 -4.0984,-3.87759 -5.53019,-6.28412 -1.3943,-2.34352 -2.14763,-5.01375 -2.65783,-7.69253 -1.39963,-7.34872 -1.0404,-15.0827 1.45958,-22.13343 0.97802,-2.75834 2.27066,-5.39225 3.51815,-8.03965 2.1622,-4.58855 4.21133,-9.26299 7.04933,-13.46723 3.53268,-5.23334 8.24484,-9.67275 11.15147,-15.27803 2.45457,-4.7335 3.49353,-10.05742 4.36185,-15.31831 0.66531,-4.03089 1.24751,-8.07549 1.74613,-12.13037"
         id="path15033-2"
         inkscape:connector-curvature="0"
         inkscape:original-d="m 248.06066,184.61218 c 0,0 -5.10626,6.34527 -7.89695,10.24696 -2.7907,3.9017 -5.73652,6.64881 -8.58729,10.75139 -2.85076,4.10259 -7.36482,9.43164 -9.44912,13.93045 -2.08429,4.49881 -2.32047,9.0356 -4.26498,13.84932 -1.94451,4.81371 -3.70129,10.64183 -5.97071,15.33612 -2.26943,4.69429 -5.37093,9.68473 -6.93891,13.53553 -1.56799,3.8508 -3.81119,5.72384 -4.10782,10.22071 -0.29663,4.49686 -0.57747,8.31749 3.77151,16.77227 4.34898,8.45478 17.23626,22.00721 24.24176,27.92472 7.00549,5.9175 9.39133,7.22492 14.60245,8.52595 5.21112,1.30104 13.85627,2.9981 16.72874,-1.2702 2.87246,-4.26829 2.27191,-5.96483 -0.74863,-10.66616 -3.02055,-4.70132 -4.82469,-5.30209 -9.79642,-9.57343 -4.97172,-4.27133 -18.63696,-14.87266 -22.68212,-19.23996 -4.04516,-4.36729 -7.10731,-3.41164 -5.53019,-6.28412 1.57712,-2.87249 -2.20738,-4.00856 -2.65783,-7.69253 -0.76361,-6.24511 0.9436,-18.71046 1.45958,-22.13343 0.51598,-3.42296 1.22371,-2.92446 3.51815,-8.03965 2.29444,-5.11519 4.12424,-8.62435 7.04933,-13.46723 2.92509,-4.84289 8.62493,-10.12787 11.15147,-15.27803 2.52654,-5.15017 3.50393,-10.72068 4.36185,-15.31831 0.85792,-4.59763 1.74613,-12.13037 1.74613,-12.13037 z"
         sodipodi:nodetypes="czzzzzzzzzzzzzzzszzzzzc" /></clipPath><inkscape:path-effect
       is_visible="true"
       id="path-effect29716-6-1"
       effect="spiro" /><clipPath
       clipPathUnits="userSpaceOnUse"
       id="clipPath14822-9"><path
         sodipodi:nodetypes="aaaasssaccaa"
         inkscape:connector-curvature="0"
         d="m 386.1875,285.32775 c -0.40516,-1.10369 -1.11845,-2.08156 -1.9907,-2.86987 -0.87226,-0.78832 -1.90049,-1.39229 -2.98278,-1.85155 -2.16459,-0.91852 -4.52053,-1.26149 -6.83152,-1.69556 -2.17919,-0.40931 -4.34179,-0.90631 -6.52782,-1.27734 -2.27136,-0.38551 -4.6179,-0.63213 -6.8653,-0.1253 -1.96583,0.44333 -3.7845,1.45879 -5.27172,2.81864 -1.48723,1.35984 -2.64911,3.0564 -3.48499,4.89007 -1.47218,3.22952 -1.93451,6.86503 -1.65394,10.40316 0.20882,2.63325 0.87532,5.34594 2.60877,7.33912 1.40065,1.61052 3.38733,2.61526 5.43398,3.22092 3.52502,1.04316 7.36663,0.98822 10.86038,-0.1553 5.76689,-1.93113 10.87568,-5.77387 14.33034,-10.77903 1.13861,-1.64963 2.11217,-3.44809 2.5532,-5.4034 0.33597,-1.48955 0.34831,-3.08112 -0.1779,-4.51456"
         id="path14824-1"
         inkscape:original-d="m 386.1875,285.32775 c -2.36571,-3.81321 -7.59294,-4.9003 -11.805,-6.41698 -2.08672,-0.75138 -4.32322,-1.04333 -6.52782,-1.27734 -2.27612,-0.2416 -4.71593,-0.91505 -6.8653,-0.1253 -3.64566,1.33955 -7.24986,3.80684 -8.75671,7.70871 -1.13743,2.94527 -1.80122,7.05909 -1.65394,10.40316 0.13075,2.96891 0.9633,5.07273 2.60877,7.33912 1.08803,1.49859 3.40096,2.67896 5.43398,3.22092 3.49923,0.93284 7.37483,0.82779 10.86038,-0.1553 5.98587,-2.2615 11.09272,-5.76885 14.33034,-10.77903 1.07459,-1.67639 2.15539,-3.45031 2.5532,-5.4034 0.30053,-1.4755 0.61519,-3.23621 -0.1779,-4.51456 z"
         style="fill:none;stroke:#ce5c00;stroke-width:1px;stroke-linecap:butt;stroke-linejoin:miter;stroke-opacity:1" /></clipPath><clipPath
       clipPathUnits="userSpaceOnUse"
       id="clipPath14822-2-4"><path
         sodipodi:nodetypes="aaaasssaccaa"
         inkscape:connector-curvature="0"
         d="m 386.1875,285.32775 c -0.40516,-1.10369 -1.11845,-2.08156 -1.9907,-2.86987 -0.87226,-0.78832 -1.90049,-1.39229 -2.98278,-1.85155 -2.16459,-0.91852 -4.52053,-1.26149 -6.83152,-1.69556 -2.17919,-0.40931 -4.34179,-0.90631 -6.52782,-1.27734 -2.27136,-0.38551 -4.6179,-0.63213 -6.8653,-0.1253 -1.96583,0.44333 -3.7845,1.45879 -5.27172,2.81864 -1.48723,1.35984 -2.64911,3.0564 -3.48499,4.89007 -1.47218,3.22952 -1.93451,6.86503 -1.65394,10.40316 0.20882,2.63325 0.87532,5.34594 2.60877,7.33912 1.40065,1.61052 3.38733,2.61526 5.43398,3.22092 3.52502,1.04316 7.36663,0.98822 10.86038,-0.1553 5.76689,-1.93113 10.87568,-5.77387 14.33034,-10.77903 1.13861,-1.64963 2.11217,-3.44809 2.5532,-5.4034 0.33597,-1.48955 0.34831,-3.08112 -0.1779,-4.51456"
         id="path14824-6-5"
         inkscape:original-d="m 386.1875,285.32775 c -2.36571,-3.81321 -7.59294,-4.9003 -11.805,-6.41698 -2.08672,-0.75138 -4.32322,-1.04333 -6.52782,-1.27734 -2.27612,-0.2416 -4.71593,-0.91505 -6.8653,-0.1253 -3.64566,1.33955 -7.24986,3.80684 -8.75671,7.70871 -1.13743,2.94527 -1.80122,7.05909 -1.65394,10.40316 0.13075,2.96891 0.9633,5.07273 2.60877,7.33912 1.08803,1.49859 3.40096,2.67896 5.43398,3.22092 3.49923,0.93284 7.37483,0.82779 10.86038,-0.1553 5.98587,-2.2615 11.09272,-5.76885 14.33034,-10.77903 1.07459,-1.67639 2.15539,-3.45031 2.5532,-5.4034 0.30053,-1.4755 0.61519,-3.23621 -0.1779,-4.51456 z"
         style="fill:none;stroke:#ce5c00;stroke-width:1px;stroke-linecap:butt;stroke-linejoin:miter;stroke-opacity:1" /></clipPath><linearGradient
       id="linearGradient14518-6"><stop
         id="stop14540-0"
         offset="0"
         style="stop-color:#110800;stop-opacity:1;" /><stop
         style="stop-color:#a65a00;stop-opacity:0.80000001;"
         offset="0.59066743"
         id="stop14542-5" /><stop
         style="stop-color:#ff921e;stop-opacity:0;"
         offset="1"
         id="stop14522-4" /></linearGradient><inkscape:path-effect
       is_visible="true"
       id="path-effect29716-0-0"
       effect="spiro" /><inkscape:path-effect
       is_visible="true"
       id="path-effect29716-0-8-3"
       effect="spiro" /><inkscape:path-effect
       effect="spiro"
       id="path-effect14300-7"
       is_visible="true" /><clipPath
       clipPathUnits="userSpaceOnUse"
       id="clipPath14489-3"><path
         style="fill:url(#linearGradient14485);fill-opacity:1;stroke:none"
         d="m 516.00562,331.8756 c -0.6714,1.71905 -1.62682,3.32679 -2.81579,4.73826 -2.6238,3.11482 -6.268,5.17039 -9.89648,7.01985 -6.1886,3.15437 -12.60169,5.92177 -18.41964,9.71654 -3.89802,2.54249 -7.4959,5.52671 -10.86016,8.74238 -2.87719,2.75012 -5.60582,5.68745 -8.83247,8.01771 -3.25567,2.35122 -7.01915,4.05426 -10.99061,4.6502 -4.83026,0.72481 -9.82134,-0.21289 -14.29898,-2.16416 -3.13754,-1.36728 -6.15569,-3.3229 -7.96301,-6.22931 -1.81425,-2.91754 -2.22807,-6.48813 -2.23266,-9.92375 -0.008,-6.07666 1.11824,-12.09004 2.17848,-18.07349 0.88097,-4.97177 1.71949,-9.95483 2.26013,-14.97502 0.98337,-9.13118 0.9763,-18.35278 0.3199,-27.51327 -0.10993,-1.53416 -0.23754,-3.0832 -0.008,-4.60412 0.22922,-1.52092 0.85475,-3.0367 2.02069,-4.03986 1.07696,-0.9266 2.52093,-1.33598 3.93947,-1.4145 1.41854,-0.0785 2.83404,0.14655 4.23982,0.35197 3.31254,0.48405 6.65159,0.8649 9.88917,1.71656 2.04284,0.53738 4.03315,1.25925 6.0722,1.81081 3.40258,0.92039 6.96639,1.36144 10.46739,0.95192 3.76917,-0.44089 7.42987,-1.85678 11.22363,-1.76474 1.55658,0.0378 3.1015,0.33171 4.58649,0.79985 1.51539,0.47772 3.00914,1.16182 4.12281,2.29512 0.84639,0.8613 1.43579,1.94539 1.87872,3.06879 0.65982,1.67352 1.01492,3.457 1.16703,5.24945 0.13475,1.58788 0.11343,3.19441 0.41433,4.75933 0.49503,2.57458 1.84746,4.92305 3.52848,6.93494 1.68102,2.01189 3.68982,3.72048 5.69641,5.40783 1.99908,1.68103 4.0106,3.35469 6.16708,4.82839 1.0121,0.69165 2.05642,1.33949 3.01736,2.10062 0.96094,0.76113 1.84466,1.6468 2.44543,2.71535 0.81492,1.44944 1.06377,3.2077 0.68307,4.82635 l 2e-5,0"
         id="path14491-6"
         inkscape:connector-curvature="0"
         sodipodi:nodetypes="aaaaaaaaaaaaaaaaaaaaaaaacscaa"
         inkscape:original-d="m 516.00562,331.8756 c 0.90859,1.59687 -1.57016,3.38773 -2.81579,4.73826 -2.74207,2.97299 -6.45099,4.90178 -9.89648,7.01985 -5.91373,3.63539 -12.61918,5.90302 -18.41964,9.71654 -3.88318,2.553 -7.32809,5.72221 -10.86016,8.74238 -3.0221,2.58411 -5.48201,5.87643 -8.83247,8.01771 -3.3519,2.1422 -7.0437,4.15414 -10.99061,4.6502 -4.78298,0.60114 -9.87221,-0.25577 -14.29898,-2.16416 -3.0947,-1.33413 -6.16113,-3.38144 -7.96301,-6.22931 -1.81288,-2.86525 -2.06093,-6.5375 -2.23266,-9.92375 -0.30734,-6.06031 1.36252,-12.0605 2.17848,-18.07349 0.67882,-5.00236 1.85312,-9.94325 2.26013,-14.97502 0.73946,-9.14185 -0.7797,-18.40771 0.3199,-27.51327 0.35468,-2.93704 -0.181,-6.65876 2.01238,-8.64398 2.0384,-1.84494 5.43058,-1.1212 8.17929,-1.06253 3.34492,0.0714 6.63224,0.95108 9.88917,1.71656 2.05612,0.48325 3.99816,1.41138 6.0722,1.81081 3.44031,0.66255 6.96573,1.06623 10.46739,0.95192 3.78516,-0.12356 7.43659,-1.79636 11.22363,-1.76474 1.55185,0.013 3.12359,0.28186 4.58649,0.79985 1.48266,0.52499 2.98786,1.20618 4.12281,2.29512 0.86547,0.83038 1.42933,1.95676 1.87872,3.06879 0.67163,1.66196 0.8942,3.4778 1.16703,5.24945 0.24238,1.57389 -0.1531,3.27141 0.41433,4.75933 1.83023,4.79924 5.57666,8.72712 9.22489,12.34277 1.74278,1.93455 4.03041,3.53404 6.16708,4.82839 2.26886,1.37444 4.3675,2.44991 5.46279,4.81597 0.65901,1.48517 -0.54371,3.76097 0.68307,4.82635 z" /></clipPath><inkscape:path-effect
       effect="spiro"
       id="path-effect14300-2-7"
       is_visible="true" /><clipPath
       clipPathUnits="userSpaceOnUse"
       id="clipPath14481-1"><path
         style="fill:url(#linearGradient14485);fill-opacity:1;stroke:none"
         d="m 516.00562,331.8756 c -0.6714,1.71905 -1.62682,3.32679 -2.81579,4.73826 -2.6238,3.11482 -6.268,5.17039 -9.89648,7.01985 -6.1886,3.15437 -12.60169,5.92177 -18.41964,9.71654 -3.89802,2.54249 -7.4959,5.52671 -10.86016,8.74238 -2.87719,2.75012 -5.60582,5.68745 -8.83247,8.01771 -3.25567,2.35122 -7.01915,4.05426 -10.99061,4.6502 -4.83026,0.72481 -9.82134,-0.21289 -14.29898,-2.16416 -3.13754,-1.36728 -6.15569,-3.3229 -7.96301,-6.22931 -1.81425,-2.91754 -2.22807,-6.48813 -2.23266,-9.92375 -0.008,-6.07666 1.11824,-12.09004 2.17848,-18.07349 0.88097,-4.97177 1.71949,-9.95483 2.26013,-14.97502 0.98337,-9.13118 0.9763,-18.35278 0.3199,-27.51327 -0.10993,-1.53416 -0.23754,-3.0832 -0.008,-4.60412 0.22922,-1.52092 0.85475,-3.0367 2.02069,-4.03986 1.07696,-0.9266 2.52093,-1.33598 3.93947,-1.4145 1.41854,-0.0785 2.83404,0.14655 4.23982,0.35197 3.31254,0.48405 6.65159,0.8649 9.88917,1.71656 2.04284,0.53738 4.03315,1.25925 6.0722,1.81081 3.40258,0.92039 6.96639,1.36144 10.46739,0.95192 3.76917,-0.44089 7.42987,-1.85678 11.22363,-1.76474 1.55658,0.0378 3.1015,0.33171 4.58649,0.79985 1.51539,0.47772 3.00914,1.16182 4.12281,2.29512 0.84639,0.8613 1.43579,1.94539 1.87872,3.06879 0.65982,1.67352 1.01492,3.457 1.16703,5.24945 0.13475,1.58788 0.11343,3.19441 0.41433,4.75933 0.49503,2.57458 1.84746,4.92305 3.52848,6.93494 1.68102,2.01189 3.68982,3.72048 5.69641,5.40783 1.99908,1.68103 4.0106,3.35469 6.16708,4.82839 1.0121,0.69165 2.05642,1.33949 3.01736,2.10062 0.96094,0.76113 1.84466,1.6468 2.44543,2.71535 0.81492,1.44944 1.06377,3.2077 0.68307,4.82635 l 2e-5,0"
         id="path14483-3"
         inkscape:connector-curvature="0"
         sodipodi:nodetypes="aaaaaaaaaaaaaaaaaaaaaaaacscaa"
         inkscape:original-d="m 516.00562,331.8756 c 0.90859,1.59687 -1.57016,3.38773 -2.81579,4.73826 -2.74207,2.97299 -6.45099,4.90178 -9.89648,7.01985 -5.91373,3.63539 -12.61918,5.90302 -18.41964,9.71654 -3.88318,2.553 -7.32809,5.72221 -10.86016,8.74238 -3.0221,2.58411 -5.48201,5.87643 -8.83247,8.01771 -3.3519,2.1422 -7.0437,4.15414 -10.99061,4.6502 -4.78298,0.60114 -9.87221,-0.25577 -14.29898,-2.16416 -3.0947,-1.33413 -6.16113,-3.38144 -7.96301,-6.22931 -1.81288,-2.86525 -2.06093,-6.5375 -2.23266,-9.92375 -0.30734,-6.06031 1.36252,-12.0605 2.17848,-18.07349 0.67882,-5.00236 1.85312,-9.94325 2.26013,-14.97502 0.73946,-9.14185 -0.7797,-18.40771 0.3199,-27.51327 0.35468,-2.93704 -0.181,-6.65876 2.01238,-8.64398 2.0384,-1.84494 5.43058,-1.1212 8.17929,-1.06253 3.34492,0.0714 6.63224,0.95108 9.88917,1.71656 2.05612,0.48325 3.99816,1.41138 6.0722,1.81081 3.44031,0.66255 6.96573,1.06623 10.46739,0.95192 3.78516,-0.12356 7.43659,-1.79636 11.22363,-1.76474 1.55185,0.013 3.12359,0.28186 4.58649,0.79985 1.48266,0.52499 2.98786,1.20618 4.12281,2.29512 0.86547,0.83038 1.42933,1.95676 1.87872,3.06879 0.67163,1.66196 0.8942,3.4778 1.16703,5.24945 0.24238,1.57389 -0.1531,3.27141 0.41433,4.75933 1.83023,4.79924 5.57666,8.72712 9.22489,12.34277 1.74278,1.93455 4.03041,3.53404 6.16708,4.82839 2.26886,1.37444 4.3675,2.44991 5.46279,4.81597 0.65901,1.48517 -0.54371,3.76097 0.68307,4.82635 z" /></clipPath><inkscape:path-effect
       effect="spiro"
       id="path-effect14300-2-2-0"
       is_visible="true" /><clipPath
       clipPathUnits="userSpaceOnUse"
       id="clipPath14473-5"><path
         style="fill:url(#linearGradient14477);fill-opacity:1;stroke:none"
         d="m 511.82669,331.89986 c -0.60617,1.40358 -1.44178,2.70776 -2.46357,3.84504 -2.32524,2.58805 -5.50706,4.22246 -8.65855,5.69652 -5.42045,2.53534 -11.00071,4.7788 -16.11556,7.88485 -3.38301,2.05437 -6.53696,4.47221 -9.50169,7.09434 -2.52461,2.23286 -4.92977,4.6271 -7.72763,6.50627 -2.88313,1.93644 -6.17534,3.29888 -9.61582,3.77358 -4.21817,0.58201 -8.55335,-0.18335 -12.51035,-1.75619 -2.7091,-1.07682 -5.36625,-2.6185 -6.96693,-5.05501 -1.53813,-2.3413 -1.9333,-5.25173 -1.95338,-8.053 -0.0354,-4.93859 0.96501,-9.81816 1.90598,-14.66641 0.78215,-4.02995 1.52682,-8.0717 1.97741,-12.15204 0.81784,-7.40607 0.66114,-14.88536 0.27989,-22.32668 -0.064,-1.24906 -0.13361,-2.5105 0.0789,-3.74301 0.21256,-1.23251 0.73646,-2.45247 1.68171,-3.27147 0.93914,-0.8137 2.20952,-1.15942 3.45104,-1.2115 1.24152,-0.0521 2.47642,0.16381 3.70512,0.34927 2.88969,0.43617 5.81087,0.7091 8.65215,1.39297 1.78651,0.43 3.53091,1.02011 5.31265,1.46945 2.98632,0.75312 6.09645,1.10709 9.15804,0.77247 3.2941,-0.36004 6.50688,-1.50957 9.81969,-1.43207 1.35838,0.0318 2.70755,0.27142 4.01277,0.64907 1.31265,0.3798 2.61744,0.9202 3.6071,1.86246 0.72535,0.69061 1.25006,1.56936 1.64371,2.49029 0.57625,1.34814 0.88626,2.79994 1.02105,4.25986 0.11897,1.28855 0.10468,2.59405 0.36251,3.86214 0.4369,2.14878 1.63966,4.08139 3.11506,5.70353 1.4754,1.62214 3.22406,2.96752 4.9559,4.31247 1.75634,1.36398 3.50975,2.7398 5.39565,3.91818 0.88228,0.55128 1.79349,1.05932 2.63473,1.67142 0.84123,0.61209 1.61878,1.33907 2.14473,2.23668 0.68386,1.16711 0.90229,2.59857 0.59763,3.91652 l 2e-5,0"
         id="path14475-9"
         inkscape:connector-curvature="0"
         sodipodi:nodetypes="aaaaaaaaaaaaaaaaaaaaaaaacscaa"
         inkscape:original-d="m 511.82669,331.89986 c 0.79493,1.29584 -1.37375,2.7491 -2.46357,3.84504 -2.39907,2.41255 -5.64405,3.97773 -8.65855,5.69652 -5.17399,2.95008 -11.04067,4.79023 -16.11556,7.88485 -3.39744,2.07173 -6.41144,4.64351 -9.50169,7.09434 -2.64407,2.09697 -4.79627,4.76865 -7.72763,6.50627 -2.93262,1.73837 -6.16262,3.37103 -9.61582,3.77358 -4.18468,0.48781 -8.63731,-0.20756 -12.51035,-1.75619 -2.70759,-1.08263 -5.39044,-2.744 -6.96693,-5.05501 -1.58611,-2.32511 -1.80313,-5.3051 -1.95338,-8.053 -0.2689,-4.91787 1.19208,-9.78694 1.90598,-14.66641 0.59391,-4.05935 1.62131,-8.06882 1.97741,-12.15204 0.64696,-7.4185 -0.68217,-14.93763 0.27989,-22.32668 0.31031,-2.38337 -0.15836,-5.4035 1.76065,-7.01448 1.78342,-1.49715 4.75128,-0.90984 7.15616,-0.86223 2.92651,0.0579 5.80263,0.77179 8.65215,1.39297 1.79893,0.39215 3.49804,1.14531 5.31265,1.46945 3.00996,0.53765 6.0944,0.86523 9.15804,0.77247 3.31168,-0.10027 6.50636,-1.45773 9.81969,-1.43207 1.35773,0.0105 2.73287,0.22873 4.01277,0.64907 1.2972,0.42602 2.61412,0.9788 3.6071,1.86246 0.75721,0.67384 1.25054,1.58789 1.64371,2.49029 0.58762,1.34866 0.78235,2.82219 1.02105,4.25986 0.21206,1.27719 -0.13395,2.65471 0.36251,3.86214 1.60129,3.89452 4.87908,7.08195 8.07096,10.016 1.52478,1.56986 3.52626,2.86783 5.39565,3.91818 1.98506,1.11534 3.82118,1.98807 4.77946,3.9081 0.57658,1.2052 -0.47569,3.05198 0.59763,3.91652 z" /></clipPath><inkscape:path-effect
       is_visible="true"
       id="path-effect4582-3"
       effect="spiro" /><inkscape:path-effect
       is_visible="true"
       id="path-effect4500-7"
       effect="spiro" /><clipPath
       clipPathUnits="userSpaceOnUse"
       id="clipPath14656-7"><path
         sodipodi:nodetypes="aaaaassssaaaaaa"
         inkscape:connector-curvature="0"
         d="m 304.84727,225.44951 c 6.01627,4.92338 9.77707,12.317 10.94319,20.00305 1.8254,12.03148 -2.34636,24.07488 -6.44591,35.53273 -0.81749,2.28481 -1.63978,4.59033 -1.96473,6.99513 -0.32495,2.4048 -0.11897,4.94825 1.02948,7.08594 1.30279,2.42497 3.73227,4.12469 6.36677,4.92292 2.58877,0.78438 5.39365,0.76103 8.01466,0.0922 2.62101,-0.66882 5.06097,-1.96774 7.18716,-3.63996 5.48002,-4.30997 8.75799,-10.98552 10.01043,-17.84394 1.25243,-6.85841 0.63908,-13.92879 -0.551,-20.7983 -1.62313,-9.36916 -4.30898,-18.53961 -7.74003,-27.40773 -2.51766,-6.50732 -5.46794,-12.91081 -9.61753,-18.52016 -4.04611,-5.46946 -9.16208,-10.08954 -13.10336,-15.63502 -2.73209,-3.84412 -4.89983,-8.13097 -8.1917,-11.50812 -1.64594,-1.68858 -3.57654,-3.13527 -5.76975,-4.00143 -2.19321,-0.86616 -4.66356,-1.12446 -6.93254,-0.48249 -1.50468,0.42573 -2.89193,1.23739 -4.03791,2.30136 -1.14598,1.06397 -2.05268,2.37637 -2.69275,3.80312 -1.28015,2.85349 -1.47719,6.11241 -0.96512,9.1977 0.66114,3.98343 2.44407,7.69333 4.46569,11.18873 2.27396,3.93169 4.918,7.71926 8.38442,10.65407 3.5985,3.04664 7.96161,5.07413 11.61053,8.0602"
         id="path14658-9"
         inkscape:original-d="m 304.84727,225.44951 c 5.05628,5.63479 9.72833,12.47181 10.94319,20.00305 1.91724,11.88535 -4.97006,23.58228 -6.44591,35.53273 -0.57645,4.66766 -2.84839,9.7988 -0.93525,14.08107 1.10334,2.46967 3.76154,4.35176 6.36677,4.92292 5.08221,1.1142 11.95719,2.41291 15.20182,-3.54776 6.07775,-11.16533 10.5961,-26.78641 9.45943,-38.64224 -0.906,-9.44981 -3.86858,-18.61978 -7.74003,-27.40773 -2.817,-6.39442 -6.14704,-12.5833 -9.61753,-18.52016 -3.44146,-5.88721 -8.20051,-10.94245 -13.10336,-15.63502 -6.34842,-6.07614 -12.40311,-17.98386 -20.89399,-15.99204 -5.48499,1.28669 -7.45029,9.57719 -7.69578,15.30218 -0.17245,4.02188 2.46425,7.71677 4.46569,11.18873 2.26238,3.92465 5.10447,7.56255 8.38442,10.65407 3.43735,3.23988 8.4511,4.53927 11.61053,8.0602 z"
         style="fill:none;stroke:#c17d11;stroke-width:1px;stroke-linecap:butt;stroke-linejoin:miter;stroke-opacity:1" /></clipPath><inkscape:path-effect
       is_visible="true"
       id="path-effect29707-7-6"
       effect="spiro" /><inkscape:path-effect
       is_visible="true"
       id="path-effect29553-7"
       effect="spiro" /><clipPath
       id="clipPath29644-8"
       clipPathUnits="userSpaceOnUse"><path
         sodipodi:nodetypes="zzzzzzz"
         inkscape:connector-curvature="0"
         inkscape:original-d="m 54.232441,122.36218 c -3.79199,4.78949 -8.5176,11.69104 -8.19273,17.25 0.32487,5.55896 3.86025,13.93486 8.37542,16 4.51517,2.06514 5.75436,0.0125 8.32902,-2.5 2.57466,-2.51247 3.85871,-7.34762 4.00585,-12.25 0.14713,-4.90238 -3.03534,-11.91949 -5.43855,-15.25 -2.40321,-3.33051 -3.28702,-8.03949 -7.07901,-3.25 z"
         id="path29646-8"
         d="m 54.232441,122.36218 c -1.780966,0.097 -3.484616,0.91899 -4.787851,2.1367 -1.303235,1.21771 -2.221372,2.81176 -2.786181,4.50357 -1.129618,3.38363 -0.875481,7.05177 -0.618698,10.60973 0.23251,3.22162 0.470404,6.50533 1.676785,9.50158 0.60319,1.49813 1.450247,2.91021 2.580338,4.06395 1.130092,1.15374 2.551736,2.04189 4.118297,2.43447 1.468838,0.36809 3.038161,0.29183 4.482784,-0.16209 1.444623,-0.45391 2.763917,-1.27887 3.846236,-2.33791 1.57904,-1.54507 2.643262,-3.5662 3.253449,-5.68947 0.610186,-2.12328 0.784157,-4.35155 0.752401,-6.56053 -0.03974,-2.76435 -0.400909,-5.53851 -1.265755,-8.16439 -0.864846,-2.62588 -2.245742,-5.10327 -4.172795,-7.08561 -0.933308,-0.96009 -1.997766,-1.80513 -3.198586,-2.39747 -1.200819,-0.59233 -2.54344,-0.92535 -3.880424,-0.85253"
         style="fill:url(#radialGradient29648);fill-opacity:1;stroke:none" /></clipPath><linearGradient
       id="linearGradient28469-0"><stop
         style="stop-color:#d2940a;stop-opacity:1"
         offset="0"
         id="stop28479-4" /><stop
         style="stop-color:#d89c08;stop-opacity:1"
         offset="0.75143719"
         id="stop28477-2" /><stop
         id="stop28485-7"
         offset="0.86579126"
         style="stop-color:#b67e07;stop-opacity:1;" /><stop
         id="stop28473-1"
         offset="1"
         style="stop-color:#946106;stop-opacity:1" /></linearGradient><inkscape:path-effect
       is_visible="true"
       id="path-effect28463-4"
       effect="spiro" /><inkscape:path-effect
       is_visible="true"
       id="path-effect28489-4"
       effect="spiro" /><inkscape:path-effect
       is_visible="true"
       id="path-effect28273-54-7"
       effect="spiro" /><linearGradient
       id="linearGradient28275-8"><stop
         id="stop28277-1"
         offset="0"
         style="stop-color:#ad780a;stop-opacity:1" /><stop
         style="stop-color:#d89e08;stop-opacity:1"
         offset="0.11972899"
         id="stop28291-9" /><stop
         style="stop-color:#edb80b;stop-opacity:1"
         offset="0.25514477"
         id="stop28289-6" /><stop
         style="stop-color:#ebc80d;stop-opacity:1"
         offset="0.39194193"
         id="stop28287-6" /><stop
         style="stop-color:#f5d838;stop-opacity:1"
         offset="0.52741116"
         id="stop28285-7" /><stop
         style="stop-color:#f6d811;stop-opacity:1"
         offset="0.76906693"
         id="stop28283-7" /><stop
         id="stop28279-5"
         offset="1"
         style="stop-color:#f5cd31;stop-opacity:1" /></linearGradient><inkscape:path-effect
       is_visible="true"
       id="path-effect28273-44"
       effect="spiro" /><inkscape:path-effect
       is_visible="true"
       id="path-effect28384-7"
       effect="spiro" /><linearGradient
       id="linearGradient29529-6"><stop
         id="stop29531-0"
         offset="0"
         style="stop-color:#3a2903;stop-opacity:1;" /><stop
         style="stop-color:#735208;stop-opacity:1"
         offset="0.55472803"
         id="stop29539-7" /><stop
         id="stop29533-8"
         offset="1"
         style="stop-color:#ac8c04;stop-opacity:1" /></linearGradient><inkscape:path-effect
       is_visible="true"
       id="path-effect29455-3"
       effect="spiro" /><linearGradient
       id="linearGradient29477-3"><stop
         id="stop29479-5"
         offset="0"
         style="stop-color:#757574;stop-opacity:0" /><stop
         style="stop-color:#757574;stop-opacity:1;"
         offset="0.26291031"
         id="stop29487-5" /><stop
         style="stop-color:#757574;stop-opacity:1;"
         offset="0.5"
         id="stop29485-0" /><stop
         id="stop29481-3"
         offset="1"
         style="stop-color:#757574;stop-opacity:0" /></linearGradient><linearGradient
       id="linearGradient29336-6"><stop
         id="stop29338-1"
         offset="0"
         style="stop-color:#646464;stop-opacity:0" /><stop
         style="stop-color:#646464;stop-opacity:0.5825243"
         offset="0.30628255"
         id="stop29344-7" /><stop
         id="stop29354-5"
         offset="0.47000006"
         style="stop-color:#646464;stop-opacity:1" /><stop
         style="stop-color:#646464;stop-opacity:0.25728154"
         offset="0.72834015"
         id="stop29356-3" /><stop
         id="stop29340-6"
         offset="1"
         style="stop-color:#646464;stop-opacity:0;" /></linearGradient><linearGradient
       id="linearGradient28976-3"><stop
         id="stop28978-7"
         offset="0"
         style="stop-color:#747474;stop-opacity:1" /><stop
         style="stop-color:#8c8c8c;stop-opacity:1;"
         offset="0.125"
         id="stop29259-5" /><stop
         style="stop-color:#a4a4a4;stop-opacity:1;"
         offset="0.25"
         id="stop29257-0" /><stop
         style="stop-color:#d4d4d4;stop-opacity:1"
         offset="0.5"
         id="stop28984-4" /><stop
         id="stop28986-0"
         offset="0.61919296"
         style="stop-color:#d4d4d4;stop-opacity:1" /><stop
         id="stop28980-2"
         offset="1"
         style="stop-color:#7c7c7c;stop-opacity:1" /></linearGradient><inkscape:path-effect
       is_visible="true"
       id="path-effect28974-8"
       effect="spiro" /><clipPath
       id="clipPath29028-5"
       clipPathUnits="userSpaceOnUse"><path
         sodipodi:nodetypes="aaaaaaaa"
         inkscape:connector-curvature="0"
         inkscape:original-d="m 85.75,122.36218 c -2.54738,2.12715 -5.20812,4.59907 -6.25,7.75 -1.30914,3.95917 -1.63336,8.91703 0.5,12.5 3.91901,6.58194 12.38353,13.85135 19.75,11.75 4.87452,-1.3905 6.10748,-8.51023 7,-13.5 0.59149,-3.30679 0.59578,-7.19325 -1.25,-10 -3.61233,-5.49303 -10.4265,-9.89357 -17,-10 -1.04403,-0.0169 -1.94852,0.83074 -2.75,1.5 z"
         id="path29030-7"
         d="m 85.75,122.36218 c -2.780425,1.91023 -5.110569,4.57487 -6.25,7.75 -1.436029,4.00163 -0.885838,8.48071 0.5,12.5 1.419488,4.11688 3.793788,8.04098 7.37932,10.51234 1.792766,1.23567 3.868091,2.08301 6.030402,2.33859 2.162311,0.25558 4.409274,-0.0949 6.340278,-1.10093 2.35312,-1.22596 4.14782,-3.37278 5.26217,-5.78076 1.11436,-2.40798 1.5888,-5.0701 1.73783,-7.71924 0.18989,-3.37546 -0.14047,-6.80646 -1.25,-10 -1.20527,-3.46909 -3.39005,-6.67055 -6.472754,-8.6666 -1.541351,-0.99803 -3.291947,-1.68356 -5.110883,-1.93515 -1.818936,-0.25158 -3.704766,-0.0633 -5.416363,0.60175 -0.975471,0.37901 -1.887438,0.9074 -2.75,1.5"
         style="fill:url(#radialGradient29032);fill-opacity:1;stroke:none" /></clipPath><inkscape:path-effect
       is_visible="true"
       id="path-effect28881-6"
       effect="spiro" /><linearGradient
       id="linearGradient28935-8"><stop
         id="stop28937-7"
         offset="0"
         style="stop-color:#949494;stop-opacity:0.39215687;" /><stop
         style="stop-color:#949494;stop-opacity:1;"
         offset="0.5"
         id="stop28943-3" /><stop
         id="stop28939-8"
         offset="1"
         style="stop-color:#949494;stop-opacity:0.39215687;" /></linearGradient><linearGradient
       id="linearGradient28853-5"><stop
         id="stop28855-3"
         offset="0"
         style="stop-color:#020204;stop-opacity:1" /><stop
         style="stop-color:#020204;stop-opacity:1"
         offset="0.73448181"
         id="stop28865-0" /><stop
         id="stop28857-9"
         offset="1"
         style="stop-color:#5c5c5c;stop-opacity:1;" /></linearGradient><inkscape:path-effect
       is_visible="true"
       id="path-effect28851-0"
       effect="spiro" /><inkscape:path-effect
       is_visible="true"
       id="path-effect28273-4-2"
       effect="spiro" /><inkscape:path-effect
       is_visible="true"
       id="path-effect28797-81"
       effect="spiro" /><inkscape:path-effect
       is_visible="true"
       id="path-effect28797-8-1"
       effect="spiro" /><inkscape:path-effect
       is_visible="true"
       id="path-effect28463-0-7"
       effect="spiro" /><inkscape:path-effect
       is_visible="true"
       id="path-effect28463-8-0"
       effect="spiro" /><inkscape:path-effect
       is_visible="true"
       id="path-effect29721-2"
       effect="spiro" /><inkscape:path-effect
       is_visible="true"
       id="path-effect28714-5"
       effect="spiro" /><inkscape:path-effect
       is_visible="true"
       id="path-effect29678-4-6"
       effect="spiro" /><inkscape:path-effect
       is_visible="true"
       id="path-effect29678-1"
       effect="spiro" /><inkscape:path-effect
       is_visible="true"
       id="path-effect29672-0"
       effect="spiro" /></defs><g
     inkscape:label="Ebene 1"
     inkscape:groupmode="layer"
     id="layer1"><circle
       style="fill:#ffffff;stroke-width:0.430048;fill-opacity:0"
       id="path1546"
       cx="135.46666"
       cy="135.46666"
       r="99.347427" /><g
       id="g2799"
       transform="matrix(0.84064704,0,0,0.84064704,135.23637,4.3249365)"><path
         fill="#a4c639"
         d="m 21.481,0.65239 4.062,7.0627 c -7.394,3.6269 -12.406,10.728 -12.406,18.875 h 23.656 23.656 c 0,-8.1468 -5.012,-15.248 -12.406,-18.875 l 4.063,-7.0626 c 0,0 0.19231,-0.37509 -0.17225,-0.58569 -0.365,-0.21059 -0.61,0.14869 -0.61,0.14869 l -4.125,7.1248 c -3.141,-1.3979 -6.6721,-2.1875 -10.406,-2.1875 -3.7341,0 -7.2653,0.7896 -10.406,2.1875 l -4.125,-7.1248 c 0,0 -0.23006,-0.35939 -0.59737,-0.14971 -0.368,0.20967 -0.184,0.58671 -0.184,0.58671 z m 4.062,13.68 c 1.2395,0 2.25,1.0105 2.25,2.25 -10e-6,1.2395 -1.0105,2.2188 -2.25,2.2188 -1.2395,0 -2.25,-0.97928 -2.25,-2.2188 0,-1.23952 1.0105,-2.25 2.25,-2.25 z m 22.5,0 c 1.2395,0 2.25,1.0105 2.25,2.25 -10e-6,1.2395 -1.0105,2.2188 -2.25,2.2188 -1.2395,0 -2.25,-0.97928 -2.25,-2.2188 0,-1.23952 1.0105,-2.25 2.25,-2.25 z"
         id="path2781-6" /><path
         d="m 12.947,29.344 v 35.893 c 0,1.7807 2.1523,4.1116 3.933,4.1116 h 5.6295 v 12.237 c 0,3.1162 2.2691,5.625 5.0938,5.625 2.8246,0 5.0938,-2.5088 5.0938,-5.625 v -12.237 h 8.1875 v 12.237 c 0,3.1162 2.2691,5.625 5.0938,5.625 2.8246,0 5.125,-2.5088 5.125,-5.625 v -12.237 h 5.5982 c 1.7807,0 3.933,-2.3309 3.933,-4.1116 V 29.344 h -47.688 z"
         fill="#a4c639"
         id="path2783" /><rect
         ry="5.625"
         height="32.544998"
         width="10.197"
         y="28.593"
         x="0"
         fill="#a4c639"
         id="rect2785" /><rect
         rx="5.625"
         height="32.544998"
         width="10.197"
         y="28.593"
         x="63.389999"
         fill="#a4c639"
         id="rect2787" /></g><path
       d="m 84.344621,97.319452 c -1.09632,2.53273 -2.39401,4.864098 -3.89754,7.007518 -2.04945,2.92204 -3.7275,4.94464 -5.02071,6.06782 -2.0047,1.84361 -4.1526,2.78779 -6.45265,2.84149 -1.65119,0 -3.64247,-0.46986 -5.96042,-1.42298 -2.32554,-0.94866 -4.4627,-1.41851 -6.41684,-1.41851 -2.04945,0 -4.24747,0.46985 -6.59853,1.41851 -2.35463,0.95312 -4.2515,1.44983 -5.70177,1.49905 -2.20563,0.094 -4.40409,-0.87706 -6.59853,-2.91756 -1.40061,-1.22162 -3.15249,-3.31582 -5.25117,-6.28261 -2.25171,-3.16815 -4.10293,-6.841948 -5.55321,-11.030348 -1.5532,-4.52402 -2.33181,-8.90483 -2.33181,-13.14604 0,-4.85828 1.04978,-9.04847 3.15249,-12.55984 1.65254,-2.82046 3.851,-5.04532 6.60255,-6.67862 2.75155,-1.6333 5.7246,-2.46561 8.92631,-2.51886 1.75188,0 4.04924,0.5419 6.90415,1.6069 2.84686,1.06858 4.67482,1.61047 5.47625,1.61047 0.59917,0 2.62984,-0.63363 6.07229,-1.89686 3.25541,-1.1715 6.00293,-1.65657 8.25375,-1.4655 6.09914,0.49223 10.68132,2.89654 13.72865,7.22813 -5.45477,3.30508 -8.15306,7.93425 -8.09937,13.87274 0.0492,4.62559 1.72727,8.47481 5.02519,11.53109 1.49458,1.41851 3.16368,2.51483 5.02071,3.29344 -0.40272,1.16792 -0.82783,2.28662 -1.27979,3.36057 z m -13.98819,-55.04438 c 0,3.62552 -1.32453,7.01065 -3.96466,10.1439 -3.18605,3.72481 -7.03973,5.87718 -11.21874,5.53755 -0.0532,-0.43495 -0.0841,-0.89272 -0.0841,-1.37376 0,-3.48049 1.51517,-7.20531 4.20586,-10.25085 1.34333,-1.54201 3.0518,-2.82417 5.12363,-3.84698 2.06735,-1.00754 4.02284,-1.56473 5.86197,-1.66015 0.0537,0.48467 0.0761,0.96938 0.0761,1.45024 z"
       id="path4"
       inkscape:connector-curvature="0"
       style="fill:#ffffff;stroke-width:0.061063" /><path
       d="m 22.659814,209.58283 h 5.414429 v -23.04916 h -5.414429 z m 2.69636,-26.07184 c 1.696094,0 3.022508,-1.3047 3.022508,-2.93549 0,-1.65263 -1.326414,-2.95727 -3.022508,-2.95727 -1.674329,0 -3.000743,1.3047 -3.000743,2.95727 0,1.63085 1.326414,2.93549 3.000743,2.93549 z m 20.745125,-5.82769 c -9.154308,0 -14.895164,6.24073 -14.895164,16.22169 0,9.98095 5.740299,16.19999 14.895164,16.19999 9.132598,0 14.873454,-6.21904 14.873454,-16.19999 0,-9.98096 -5.740299,-16.22169 -14.873454,-16.22169 z m 0,4.78385 c 5.58833,0 9.154308,4.43593 9.154308,11.43773 0,6.97999 -3.566089,11.41602 -9.154308,11.41602 -5.61004,0 -9.154308,-4.43593 -9.154308,-11.41602 0,-7.0017 3.544379,-11.43773 9.154308,-11.43773 z m 17.157437,18.28746 c 0.239193,5.78427 4.979511,9.35024 12.198705,9.35024 7.588959,0 12.372919,-3.74009 12.372919,-9.69816 0,-4.67506 -2.69636,-7.30618 -9.06747,-8.76297 l -3.609613,-0.82632 c -3.848824,-0.91325 -5.436147,-2.13095 -5.436147,-4.21842 0,-2.60937 2.391923,-4.34893 5.936249,-4.34893 3.587851,0 6.044791,1.76134 6.305871,4.69683 h 5.34919 c -0.13044,-5.52314 -4.69685,-9.26341 -11.611426,-9.26341 -6.828014,0 -11.677096,3.76181 -11.677096,9.32855 0,4.47939 2.739833,7.26275 8.523615,8.58929 l 4.066246,0.95678 c 3.957531,0.93503 5.566611,2.23969 5.566611,4.50113 0,2.60934 -2.63112,4.47939 -6.414407,4.47939 -3.827055,0 -6.718915,-1.89176 -7.066828,-4.78383 h -5.436139 z"
       id="path2807"
       style="stroke-width:0.556661;stroke:none;stroke-opacity:1;fill:#ffffff;fill-opacity:1" /><g
       id="g4472"
       transform="matrix(0.03305676,0,0,0.03305676,168.90634,225.70156)"><path
         inkscape:connector-curvature="0"
         id="path3216"
         style="fill:#2e3336;fill-rule:evenodd"
         d="m -330.39862,-790.23755 c -19.3561,38.2588 -32.0973,85.297 -33.2063,142.9971 -4.7038,244.7445 10.657,206.8934 1.1753,319.1973 -3.4808,41.3314 -27.9815,101.761 -58.068,162.278 -34.5096,69.134001 -76.0911,138.108301 -101.7473,178.579701 -48.5016,76.49886 -105.5389,156.043459 -145.3458,236.902059 -22.7551,45.8827 -40.0338,92.1933 -47.1108,138.6157 -4.7311,31.03072 -5.2806,71.15352 -4.2209,108.75562 -28.0548,24.373 -42.4649,65.4237 -71.2927,96.7193 -18.5943,20.1387 -54.5358,26.6795 -94.3696,34.3952 -34.1753,6.5408 -70.3366,19.844 -82.9777,40.203 -1.4113,2.2713 -2.687,4.6264 -3.8579,7.0463 -28.78278,55.4174 6.4447,150.53 -10.7365,220.89 -7.2756,29.9134 -19.69678,58.0626 -19.91848,83.8598 -0.075,13.3036 2.93918,27.41427 12.20108,43.43677 10.142,17.6398 32.4124,30.2068 64.0901,41.1582 29.546,10.2165 67.9117,19.1837 112.5238,29.6935 l 15.4353,3.6013 c 20.0639,4.7783 40.0555,9.5548 60.2669,13.5979 13.1561,2.7193 20.8009,4.0417 27.3398,5.2184 28.4424,5.0712 39.2466,7.0554 115.096,36.6744 18.3017,7.1299 38.5858,14.7728 60.047,21.3136 42.4077,13.1561 90.3282,22.7109 134.5743,14.7002 22.4176,-4.0414 43.5841,-12.5685 62.399,-27.2668 19.4766,-15.2133 38.2185,-35.7194 51.5217,-56.5185 3.5563,-5.5469 6.8445,-11.2885 9.7239,-17.197 2.5232,-4.9863 4.7632,-10.0953 6.6333,-15.3101 1.7827,-4.7531 3.2688,-9.6847 4.3515,-14.635 17.8459,-8.8988 62.0064,-22.3262 167.149901,-23.3435 158.46006,-1.544 264.001159,55.638 264.001159,55.638 l 0.075,-1.1749 c 1.3224,7.4972 2.9395,14.4781 4.9981,21.1664 3.0141,9.7747 7.0558,18.7419 12.494,27.4144 5.5131,8.5994 12.3486,16.7573 21.0211,24.7695 9.4072,8.6724 20.726,16.6846 33.6622,23.5198 12.0535,6.3209 25.577,11.612 40.4229,15.5079 13.5234,3.5286 28.1491,5.8805 43.65695,6.6153 14.48,0.7348 29.6187,0.074 45.4214,-2.2047 26.6796,-3.8215 47.2584,-12.2738 64.9707,-23.2251 17.2723,-10.657 31.3834,-23.4457 45.7888,-36.5273 l 0.4419,-0.3673 v 0 c 9.4818,-8.5998 19.1092,-17.345 29.7662,-25.3572 7.1284,-5.3655 13.6707,-10.3641 19.9186,-15.2132 9.2601,-7.1299 14.4057,-11.1716 19.6241,-15.2878 15.6552,-12.2737 31.8231,-25.0624 47.9932,-37.1163 16.7573,-12.4213 34.5427,-25.0625 53.8736,-37.4093 14.6257,-9.4073 31.0887,-20.06427 46.891,-30.42657 16.3172,-10.7314 33.3675,-21.9757 49.4631,-33.0001 28.749,-19.5266 68.4262,-43.729 83.4571,-75.1656 5.0201,-9.725 7.7153,-20.1488 6.9859,-31.3539 -2.3516,-35.9396 -44.9065,-68.3521 -82.5359,-100.5447 -18.3018,-15.7278 -36.7489,-31.3089 -46.3764,-47.2584 -7.7902,-12.8613 -17.1992,-32.2653 -19.844,-46.3764 -7.4278,-39.1314 -7.2692,-68.365 -25.7973,-94.2141 -17.0034,-23.7223 -31.8655,-30.5463 -58.0726,-33.5071 -3.9283,-0.4437 -7.6213,-0.9949 -11.2014,-1.5768 17.0254,-62.68 20.8311,-102.4753 17.7163,-154.98192 -7.1154,-119.9476 -85.6423,-256.4252 -174.4823,-394.714459 -52.4263,-86.597001 -107.5943,-167.860101 -142.11075,-224.947501 -18.8706,-31.7184 -29.6831,-52.6023 -39.5383,-80.229 -11.3591,-31.841 -15.2939,-109.1017 -16.6127,-233.6772 4.7038,-190.8726 -54.3882,-278.9942 -125.9001,-333.9704 -71.513299,-54.9759 -176.467159,-54.0939 -214.31826,-50.787 v 0 0 l -0.001,-10e-4 c -31.7335,2.7668 -165.2251,34.7885 -227.5283,160.4219 z" /><path
         inkscape:connector-curvature="0"
         id="path3218"
         style="fill:#fcc624;fill-rule:evenodd"
         d="m -806.04782,629.30093 c -37.6059,18.0678 -124.2004,17.7004 -145.2071,53.6907 -23.0626,39.5874 -8.1523,83.4369 -7.9325,133.9701 0.0744,35.7682 -0.5143,75.5788 -15.5701,117.9578 -12.34,34.8887 -16.5262,47.2273 1.1741,77.92927 17.7008,30.7755 94.527,45.5385 198.4563,70.3644 104.0022,24.753 70.8768,6.4635 187.2934,51.9275 72.1256,28.2031 173.9246,62.7988 239.881,11.3113 24.3115,-19.0237 64.1931,-62.0628 66.618,-104.0022 1.3957,-23.9445 -0.809,-49.50457 -6.5368,-65.00207 -19.0236,-51.7107 -57.0695,-73.8175 -93.2048,-127.8753 -66.178,-100.4047 -136.4675,-195.5929 -192.6556,-279.1772 -39.6618,-59.1254 -71.5384,-73.4485 -98.4946,-68.7479 -82.8497,14.6158 -56.1137,90.3404 -133.8228,127.6536 v 0 0 h 10e-4 z" /><path
         inkscape:connector-curvature="0"
         id="path3220"
         style="fill:#fcc624;fill-rule:evenodd"
         d="m 247.76254,543.81853 c -36.4924,25.7812 -28.5889,103.0533 -30.73,143.7566 -3.2506,62.2751 -3.6946,131.7155 -5.8357,159.3434 -3.5465,45.7266 -38.1926,149.0013 -33.9807,197.75747 4.1372,48.6828 7.6822,77.1973 37.97,105.1211 30.3609,27.9238 83.7715,48.7557 149.73965,39.2257 65.9687,-9.5304 90.9362,-50.5296 133.7104,-82.589 42.6974,-32.0609 86.6528,-70.1054 143.0911,-106.3036 56.4378,-36.27137 147.3026,-95.66587 160.378,-111.69557 13.0754,-16.1041 21.9399,-29.9912 12.4847,-51.1198 -9.3822,-21.1282 -42.3282,-53.7798 -78.3052,-83.4771 -93.8176,-77.5664 -53.3145,-149.6682 -92.4882,-187.7845 -11.9511,-12.8767 -20.8323,-19.9731 -34.7031,-22.7976 -74.8757,-15.2487 -95.4459,14.1606 -139.4109,9.8396 -47.4058,-4.6579 -29.5833,5.764 -126.8984,-7.2218 -33.49775,-3.8051 -71.89705,-17.0693 -95.02165,-2.0579 v 0 z" /><path
         inkscape:connector-curvature="0"
         id="path3222"
         style="fill:#fcc624;fill-rule:evenodd"
         d="m -310.71672,-315.63265 c 0.8476,0.896 0.5317,2.4828 1.4742,3.4211 11.0834,11.0389 23.9022,21.8597 35.0786,34.5205 12.8505,14.5579 24.6274,30.8412 35.5646,40.8189 20.1108,18.3467 39.2167,28.1514 67.1281,31.5963 53.9041,6.6533 94.206101,-8.2938 139.664201,-38.2742 21.3884,-14.1111 51.00706,-40.1289 68.13206,-52.9915 28.5164,-21.4617 36.6745,-19.7714 45.1266,-30.574 8.7469,-11.2445 13.0089,-40.6433 10.4369,-54.5341 -2.0573,-10.7313 -5.8061,-17.8596 -17.419,-25.2098 -12.9363,-8.1577 -35.2052,-16.7569 -73.79120004,-29.839 l -0.072,-0.073 c -19.74562496,-7.21595 -40.08808396,-14.48653 -57.58525996,-21.1647 -39.1736,-15.2135 -64.698311,-26.74025 -100.322801,-23.8875 -16.38312,1.31193 -32.50951,4.83112 -46.3788,10.2154 v 0.0726 c -26.09551,10.97666 -51.34957,27.85684 -72.0774,42.3751 -18.2273,12.7156 -36.8964,29.6188 -47.7006,46.9656 -6.4035,10.2641 -16.5395,31.4417 -7.0841,43.618 0.025,0.0314 24.1498,12.3899 48.3656,26.71 39.1494,23.1499 83.8691,35.1066 123.7966,32.8827 31.7572,-1.7686 67.204301,-11.7988 92.799901,-24.1184 25.7608,-12.3997 57.4357,-31.9549 88.30976,-55.7778 4.7781,-3.5284 13.8795,-12.4654 19.5696,-15.1617 5.0174,-2.377 21.1908,-0.9981 20.4482,4.4944 -0.5816,4.3008 -19.5753,11.9775 -26.4217,17.0626 -33.7738,25.0843 -71.37486,49.6531 -95.81406,60.9172 -25.2498,11.6374 -67.745901,25.0737 -96.467901,26.769 -26.2399,1.5482 -48.5217,-1.3627 -71.3318,-9.0757 -22.0531,-7.4571 -35.1262,-13.9321 -58.6071,-27.4938 -7.4889,-4.3251 -14.6886,-7.9359 -24.8239,-14.2642 z"
         sodipodi:nodetypes="cccssccccccccsccccccscccccscsccc" /><path
         id="path3224"
         transform="translate(-160,-342.63782)"
         d="m 168.86133,-303.74805 c -43.02229,-0.50889 -84.568283,32.86875 -98.226564,77.86133 -11.312176,37.53429 -10.798824,67.35751 -8.962891,83.66602 v 0.002 c 12.636,3.8195 25.782597,8.81644 40.841795,14.61914 -9.329298,-21.0092 -8.66597,-48.26223 3.67383,-70.74023 17.6298,-32.2475 52.5216,-42.60476 77.9375,-23.06446 25.343,19.5387 31.65963,61.48297 13.95703,93.73047 -6.3916,11.6798 -15.05936,20.49347 -24.75586,26.07617 16.8209,5.802804 30.33781,10.723982 41.28321,15.205082 14.1194,-17.924202 32.81711,-46.516982 40.69531,-70.958982 12.8188,-39.7682 2.93949,-110.33067 -50.53711,-137.50977 -11.69802,-5.9451 -23.86001,-8.74423 -35.90625,-8.88672 z m -281.29883,19.13672 c -6.85387,-0.0123 -14.18989,1.26835 -22.01758,4 h -0.002 c -33.9363,11.8254 -46.86493,68.90194 -34.89063,120.61524 6.6116,28.5008 18.28942,55.60523 35.69922,72.427731 3.5994,-2.7905 7.27141,-5.50816 10.94532,-8.00586 2.86329,-2.0561 5.72743,-4.040572 8.51953,-5.951171 -21.9636,-10.7238 -36.43268,-43.99859 -32.61329,-76.24609 3.96661,-33.5691 26.29726,-53.40281 49.876958,-44.22071 23.5798,9.1821 39.445216,43.927 35.478516,77.4961 -0.5128,4.4067 -1.320175,8.59448 -2.421875,12.48828 6.9772,-3.5994 13.294675,-6.46449 19.171875,-8.74219 1.4705,-0.5872 2.863765,-1.17719 4.259765,-1.61719 2.2034,-16.8953 1.910229,-35.33288 -1.763671,-53.77148 -10.288941,-50.6353 -33.231279,-88.40644 -70.242188,-88.47266 z M 244.35938,29.890625 c -8.08051,4.1867 -22.18539,10.062981 -43.70899,26.738281 -15.6449,12.1943 -44.58583,37.536672 -66.76953,52.888674 -14.485,10.0282 -30.33915,18.69868 -45.935548,25.48828 -22.4457,9.7742 -44.357593,15.65439 -60.871093,16.08789 -59.1969,3.1303 -87.355803,-11.531 -114.345703,-39.6582 -11.3207,-11.797903 -19.896636,-24.723044 -34.177736,-40.494144 -6.3269,-6.9869 -15.08121,-16.269837 -24.00781,-22.648437 -0.2426,7.7521 -25.09527,173.206511 -58.54297,246.349611 -33.4478,73.1432 -31.80716,48.29118 -54.28516,124.74414 -31.217,28.3261 -65.4392,104.43025 -87.9707,169.93945 -23.24337,76.90817 -40.85403,136.21015 -42.30859,222.35742 -11.61678,-23.15359 -19.9724,-48.06233 -23.25586,-75.15625 -11.5708,-95.14262 13.61684,-208.62466 88.81054,-290.31836 3.1833,-3.45875 3.11719,-4.87262 1.70508,-4.7832 -1.0983,0.0696 -3.01141,1.04887 -4.84375,2.6836 -93.9076,83.78639 -116.23582,238.32598 -106.57812,307.375 6.90432,49.36533 19.78295,91.95939 45.98633,126.58789 0.006,0.0864 0.01,0.16936 0.0156,0.25585 0.44284,0.50504 0.89431,0.9975 1.3418,1.4961 6.87913,8.86582 14.6379,17.20908 23.43554,24.99023 7e-4,6.2e-4 0.001,0.001 0.002,0.002 15.33928,16.93571 34.48999,35.42083 73.49414,65.06445 71.7794,54.5524 122.08362,83.3556 131.98242,118.832 13.1763,47.2242 -16.35835,78.454 -53.18555,97.6562 26.9268,26.9413 112.884463,82.1363 269.630862,75.2383 138.042358,-6.0745 224.608608,-58.3186 298.503908,-148.459 0.4724,-20.7423 2.74233,-55.4521 3.76953,-92.9199 0.9804,-35.78204 1.18806,-71.61559 6.66406,-99.40619 1.2893,-6.5404 3.75665,-12.73474 5.96485,-18.18165 9.0155,-22.23859 33.27904,-37.38856 56.49804,-38.48046 12.2072,-0.5743 25.02059,-1.45742 37.27149,1.08398 2.26451,-17.69576 4.02553,-34.71702 5.26367,-51.26367 15.81778,-4.58671 43.63633,-8.9148 77.05469,-10.0293 51.78218,-1.72719 113.80857,3.10453 145.1289,22.7461 -6.97784,-6.10311 -15.53007,-11.48697 -24.63867,-15.84571 -36.64316,-17.53479 -86.83108,-23.4338 -137.98633,-25.02344 13.67043,-36.28974 27.80057,-88.34263 26.30274,-127.28124 -3.9318,-102.20142 -54.73457,-180.9247 -127.13672,-235.6836 -1.7989,-1.36035 -3.55094,-2.39214 -4.23047,-2.49414 -0.67953,-0.102 -0.28757,0.72624 2.20703,3.08789 83.84575,79.3682 111.87312,169.76136 104.88672,257.47266 -2.72673,34.23235 -17.58189,73.03581 -34.58203,104.39062 -7.96625,-0.013 -17.36283,0.40155 -25.40039,0.54492 4.06232,-107.43022 -17.05786,-197.562 -76.93946,-323.04687 -5.72989,-10.871 -33.13619,-56.97733 -49.49609,-69.99024 -12.7848,-62.54865 -14.46917,-59.47983 -40.04687,-116.74023 -38.791,-86.8387 -52.84869,-187.212265 -64.67578,-246.197265 z"
         style="fill:#f5f5f5;fill-rule:evenodd"
         inkscape:connector-curvature="0" /><path
         inkscape:connector-curvature="0"
         id="path3232"
         style="fill:#2e3336;fill-rule:evenodd"
         d="m 552.04329,533.16883 c 1.2894,-2.4213 3.9011,-12.131 4.0987,-14.1028 4.9336,-49.1717 -90.7214,-60.2361 -165.1752,-57.7527 -33.7841,1.1267 -60.1135,5.1112 -75.8376,9.7535 -27.39375,8.0874 -40.88215,26.6398 -43.91705,49.8496 -6.1438,46.9864 7.7988,146.2455 54.41945,167.962 48.2104,22.4565 121.2194,-9.5981 164.3174,-57.9495 29.184,-32.7403 47.7684,-70.8593 62.0943,-97.7601 z" /><path
         inkscape:connector-curvature="0"
         id="path3234"
         style="fill:#2e3336;fill-opacity:1;fill-rule:evenodd"
         d="m -180.55522,-456.53795 c -3.1597,-4.7033 -16.3174,-2.2787 -22.6382,0 -6.2478,2.3521 -11.0985,9.1876 -8.525,13.8184 1.3222,2.3516 4.189,3.5284 6.3933,3.0867 3.3814,-0.7351 6.9828,-4.4838 11.5392,-7.9379 4.8511,-3.7487 11.9065,-7.0554 13.2288,-8.9672 v 0 z" /><path
         inkscape:connector-curvature="0"
         id="path3236"
         style="fill:#2e3336;fill-opacity:1;fill-rule:evenodd"
         d="m -139.69212,-456.39055 c -1.9114,-1.9843 21.3885,-6.7625 30.5741,0.4403 9.259701,7.2028 8.6725,12.8615 5.8801,15.8752 -2.9393,3.0867 -30.0605,-13.7435 -36.4542,-16.317 v 10e-4 z" /></g><g
       style="fill:#0078d6"
       id="g3104"
       transform="matrix(0.7832656,0,0,0.7832656,200.62454,101.15963)"><path
         d="M 0,12.5 35.7,7.6 V 42.1 H 0 M 40,6.9 87.3,0 V 41.8 H 40 M 0,45.74 h 35.7 v 34.6 L 0,75.34 M 40,46.2 H 87.3 V 87.6 L 40,80.9"
         id="path2673-0"
         sodipodi:nodetypes="cccccccccccccccc" /></g><g
       style="fill:none;stroke-width:0.545752"
       id="g1810"
       transform="matrix(0.48480505,0,0,0.48480505,92.744249,93.148334)"><path
         fill-rule="evenodd"
         clip-rule="evenodd"
         d="M 38.1398,0 C 17.0758,-2.2601e-6 -2.2601e-6,17.0758 0,38.1398 V 161.86 C -2.54261e-6,182.924 17.0758,200 38.1398,200 H 161.86 C 182.924,200 200,182.924 200,161.86 V 38.1398 C 200,17.0758 182.924,1.69507e-6 161.86,6.21526e-6 Z m 60.1199,46.7101 c 6.1693,6.1691 9.6653,13.9993 10.4873,22.0509 2.536,-10.7691 9.636,-16.5389 15.928,-21.6524 1.706,-1.3861 3.353,-2.7241 4.833,-4.1003 3.831,-3.5625 6.901,-10.2914 9.044,-16.6103 1.044,-3.0771 1.822,-5.9117 2.339,-7.9778 0.258,-1.0314 0.449,-1.8671 0.576,-2.4407 0.063,-0.2866 0.11,-0.5075 0.14,-0.6543 0.016,-0.0734 0.027,-0.1283 0.034,-0.1635 l 0.007,-0.038 0.002,-0.0078 c 0.211,-1.0727 0.989,-1.9458 2.031,-2.2786 1.041,-0.3327 2.181,-0.0725 2.975,0.6792 l 0.164,0.1592 c 0.095,0.0929 0.227,0.2249 0.392,0.3941 0.329,0.3381 0.79,0.8255 1.337,1.4453 1.092,1.2363 2.545,3.0152 3.995,5.1989 2.675,4.0266 5.535,9.7149 5.817,16.0645 0.488,0.5058 1.137,1.2074 1.872,2.0768 1.565,1.8512 3.562,4.5115 5.224,7.7046 3.076,5.9136 5.215,14.1612 0.566,22.3096 0.49,0.7519 1.078,1.7271 1.689,2.8994 1.504,2.89 3.173,7.0409 3.772,12.0396 1.226,10.2413 -2.127,23.3305 -18.547,35.8625 -0.021,0.016 -0.042,0.032 -0.063,0.047 -0.031,0.022 -0.062,0.044 -0.093,0.065 l 20.439,22.537 c 1.213,1.338 2.055,2.977 2.168,4.779 0.282,4.528 -0.156,13.775 -7.154,20.772 -6.945,6.946 -16.297,7.619 -20.966,7.455 -1.905,-0.067 -3.656,-0.931 -5.068,-2.213 l -22.419,-20.33 c -0.035,0.052 -0.072,0.104 -0.111,0.155 -12.532,16.421 -25.6216,19.774 -35.8628,18.547 -4.9988,-0.599 -9.1497,-2.267 -12.0396,-3.772 -1.1724,-0.61 -2.1476,-1.199 -2.8995,-1.689 -8.1484,4.649 -16.396,2.511 -22.3095,-0.566 -3.1932,-1.661 -5.8534,-3.658 -7.7047,-5.224 -0.8694,-0.735 -1.5709,-1.384 -2.0767,-1.872 -6.3497,-0.281 -12.038,-3.141 -16.0646,-5.816 -2.1836,-1.451 -3.9625,-2.903 -5.1989,-3.995 -0.6197,-0.548 -1.1072,-1.008 -1.4453,-1.338 -0.1691,-0.165 -0.3012,-0.297 -0.394,-0.391 l -0.1592,-0.165 c -0.7517,-0.793 -1.0119,-1.934 -0.6792,-2.975 0.3327,-1.042 1.2058,-1.82 2.2786,-2.031 l 0.0077,-0.001 0.0381,-0.008 c 0.0352,-0.007 0.09,-0.018 0.1634,-0.033 0.1468,-0.031 0.3677,-0.078 0.6544,-0.141 0.5736,-0.126 1.4093,-0.318 2.4407,-0.576 2.0661,-0.517 4.9007,-1.294 7.9777,-2.338 6.3189,-2.144 13.0478,-5.214 16.6104,-9.045 1.3761,-1.48 2.7138,-3.126 4.0999,-4.832 5.1134,-6.292 10.8837,-13.393 21.6527,-15.929 C 60.708,107.926 52.8778,104.43 46.7087,98.2611 32.4732,84.0257 32.4732,60.9455 46.7087,46.71 60.9441,32.4746 84.0243,32.4746 98.2597,46.7101 Z M 148.794,115.386 113.791,76.7888 c 0.254,-13.0997 6.686,-18.392 14.107,-24.4965 1.863,-1.5331 3.789,-3.1179 5.695,-4.89 5.026,-4.6731 8.478,-12.6993 10.641,-19.0767 0.776,-2.2863 1.411,-4.4396 1.91,-6.2733 0.457,0.6079 0.93,1.2708 1.403,1.9817 2.575,3.877 4.901,8.856 4.835,13.9742 -0.048,3.7615 -1.385,7.8059 -5.3,11.8014 -8.285,8.4579 -13.147,15.7697 -15.953,21.0432 -1.402,2.6352 -2.288,4.7563 -2.83,6.2508 -0.271,0.7471 -0.456,1.3372 -0.577,1.756 -0.06,0.2094 -0.104,0.3759 -0.135,0.4979 l -0.055,0.2303 c -0.355,1.6185 0.67,3.218 2.288,3.5726 1.614,0.3535 3.209,-0.6642 3.57,-2.2745 v -0.0017 l 0.006,-0.0239 0.008,-0.0314 c 0.014,-0.059 0.042,-0.1623 0.084,-0.308 0.084,-0.2914 0.227,-0.7529 0.451,-1.3708 0.448,-1.2354 1.22,-3.0982 2.487,-5.4791 2.532,-4.7587 7.051,-11.6072 14.943,-19.6626 2.92,-2.9812 4.804,-6.1114 5.876,-9.2656 0.979,1.3222 1.998,2.8741 2.889,4.5864 2.794,5.3706 4.088,11.7438 -0.113,17.8203 l -0.095,0.116 c -0.055,0.0676 -0.123,0.1504 -0.202,0.2477 -0.082,0.1008 -0.176,0.2172 -0.282,0.3483 -0.415,0.515 -1.007,1.2578 -1.722,2.1764 -1.428,1.8351 -3.353,4.3828 -5.334,7.2262 -1.976,2.8366 -4.036,6.0066 -5.717,9.0812 -1.649,3.0149 -3.07,6.178 -3.568,8.9457 -0.293,1.6307 0.792,3.1903 2.422,3.4835 1.631,0.2931 3.191,-0.7912 3.484,-2.4219 0.32,-1.784 1.354,-4.254 2.926,-7.1284 1.539,-2.8147 3.467,-5.7902 5.376,-8.5302 1.771,-2.5425 3.503,-4.8486 4.85,-6.5895 l 0.045,0.0832 c 0.026,0.0496 0.053,0.0997 0.08,0.1503 0.035,0.0664 0.07,0.1336 0.106,0.2017 1.269,2.4372 2.646,5.887 3.136,9.9823 0.952,7.9469 -1.343,19.019 -16.23,30.38 -0.189,0.145 -0.357,0.308 -0.502,0.484 z m -72.0065,-1.594 38.5975,35.004 c -0.177,0.145 -0.34,0.312 -0.484,0.502 -11.362,14.886 -22.4335,17.181 -30.3803,16.23 -4.0953,-0.491 -7.5451,-1.868 -9.9824,-3.137 -0.1491,-0.077 -0.2942,-0.155 -0.4352,-0.231 1.7409,-1.347 4.047,-3.078 6.5895,-4.85 2.74,-1.909 5.7155,-3.837 8.5302,-5.376 2.8745,-1.572 5.3444,-2.605 7.1284,-2.926 1.6307,-0.293 2.7151,-1.853 2.4219,-3.483 -0.2931,-1.631 -1.8527,-2.715 -3.4834,-2.422 -2.7677,0.497 -5.9309,1.918 -8.9458,3.567 -3.0746,1.681 -6.2446,3.741 -9.0812,5.717 -2.8434,1.981 -5.391,3.906 -7.2261,5.334 -0.9187,0.715 -1.6614,1.307 -2.1765,1.723 -0.2576,0.207 -0.4584,0.371 -0.5959,0.483 l -0.1161,0.096 c -6.0764,4.2 -12.4497,2.906 -17.8203,0.112 -1.7123,-0.891 -3.2641,-1.91 -4.5863,-2.888 3.1541,-1.073 6.2843,-2.957 9.2655,-5.877 8.0554,-7.891 14.904,-12.411 19.6626,-14.943 2.3809,-1.266 4.2438,-2.038 5.4792,-2.486 0.6179,-0.225 1.0793,-0.368 1.3707,-0.452 0.1458,-0.042 0.249,-0.069 0.3081,-0.084 0.0295,-0.008 0.048,-0.012 0.0552,-0.014 h 0.0017 c 1.6104,-0.361 2.6281,-1.956 2.2745,-3.569 -0.3546,-1.619 -1.954,-2.644 -3.5725,-2.289 l -0.2303,0.055 c -0.122,0.031 -0.2886,0.075 -0.498,0.136 -0.4188,0.12 -1.0088,0.305 -1.7559,0.576 -1.4945,0.543 -3.6157,1.428 -6.2509,2.831 -5.2734,2.805 -12.5853,7.667 -21.0431,15.953 -3.9956,3.914 -8.0399,5.251 -11.8015,5.3 -5.1181,0.065 -10.0971,-2.26 -13.9741,-4.836 -0.7109,-0.472 -1.3739,-0.946 -1.9818,-1.403 1.8338,-0.498 3.9871,-1.134 6.2734,-1.909 6.3773,-2.164 14.4035,-5.616 19.0767,-10.641 1.7722,-1.906 3.3568,-3.832 4.8899,-5.696 6.1046,-7.42 11.3968,-13.853 24.4966,-14.107 z M 91.1887,91.19 c 10.3303,-10.3301 10.3303,-27.0787 0,-37.4089 -10.3302,-10.3302 -27.0788,-10.3302 -37.409,0 -10.3301,10.3302 -10.3301,27.0787 0,37.4089 10.3302,10.33 27.0788,10.33 37.409,0 z m 55.0043,78.739 c 0.194,0.177 0.436,0.292 0.694,0.329 0.037,0.005 0.074,0.009 0.112,0.011 1.257,0.064 3.034,0.066 5.062,-0.188 4.1,-0.515 8.856,-2.022 12.609,-5.775 3.739,-3.739 5.152,-8.379 5.582,-12.341 0.213,-1.967 0.173,-3.685 0.08,-4.898 -0.023,-0.307 -0.152,-0.595 -0.359,-0.823 L 121.721,93.0377 c -4.975,-5.4854 -14.216,-3.8447 -18.883,1.904 -1.163,1.4318 -2.412,2.8183 -3.7453,4.1521 -1.3338,1.3342 -2.7203,2.5822 -4.1523,3.7452 -5.7487,4.668 -7.3894,13.909 -1.904,18.883 z M 58.0532,66.4128 c 1.0261,-1.3188 0.7889,-3.2197 -0.53,-4.2458 -1.3188,-1.0261 -3.2197,-0.7888 -4.2458,0.53 -1.6291,2.0938 -2.7396,4.5434 -3.2407,7.1485 -0.5011,2.6052 -0.3787,5.2919 0.3573,7.8407 0.736,2.5487 2.0646,4.8872 3.8774,6.8242 1.8127,1.9369 4.0581,3.4175 6.5525,4.3205 1.5712,0.5689 3.306,-0.2437 3.8748,-1.8149 0.5689,-1.5712 -0.2437,-3.306 -1.8149,-3.8748 -1.5967,-0.578 -3.034,-1.5257 -4.1943,-2.7656 -1.1603,-1.2399 -2.0108,-2.7367 -2.4819,-4.3682 -0.4711,-1.6315 -0.5495,-3.3512 -0.2287,-5.0188 0.3208,-1.6676 1.0316,-3.2355 2.0743,-4.5758 z"
         fill="#ffffff"
         stroke="#ffffff"
         stroke-width="0.534244"
         mask="url(#path-1-inside-1_307_20313)"
         id="path1801" /></g></g></svg>
